<svg width="1032" height="1032" viewBox="0 0 1032 1032" fill="none" xmlns="http://www.w3.org/2000/svg">
<g filter="url(#filter0_d_1_2)">
<rect width="1024" height="1024" transform="translate(4)" fill="#060C84"/>
<path fill-rule="evenodd" clip-rule="evenodd" d="M578 174.5C578 196.954 566.159 216.643 548.38 227.662C548.107 233.975 548.398 271 548.398 271H807.51C812.753 271.134 819.821 272.617 826.055 277.822C832.762 283.422 837.188 292.157 836.915 303.909C836.646 315.453 832.117 325.949 824.976 331.053C818.676 335.556 811.53 336.563 806.414 336.154H775.125L887.834 577.838C889.088 580.549 889.712 583.334 889.791 586.063C895.745 586.524 901.124 589.481 904.495 594.323C908.205 599.655 908.937 606.507 906.376 612.797C904.156 618.25 901.426 624.636 898.921 630.174C896.569 635.373 894.012 640.743 892.223 643.495C881.384 660.17 868.732 668.21 860.878 670.698C860.744 670.741 860.611 670.781 860.479 670.819C858.505 671.39 856.74 671.5 855.429 671.5H666.5C658.809 671.5 651.851 668.664 646.624 665.69C641.307 662.665 636.897 658.993 634.046 656.136C632.623 654.71 631.575 653.186 630.797 651.783L611.613 617.183C605.096 605.429 611.19 591.426 622.788 587.24C622.697 584.047 623.346 580.752 624.872 577.571L741.64 336.154H550.418C549.945 336.154 549.66 336.206 549.519 336.241C549.447 336.259 549.402 336.275 549.377 336.284C549.368 336.288 549.36 336.291 549.354 336.294L549.351 336.296C549.344 336.299 549.341 336.301 549.341 336.301L549.339 336.302C549.339 336.302 549.337 336.303 549.333 336.307C549.33 336.309 549.326 336.313 549.321 336.317C549.299 336.339 549.242 336.398 549.162 336.517C548.987 336.779 548.778 337.218 548.618 337.818C548.457 338.427 548.418 338.937 548.418 339.154V774.5H637.334L638.074 774.601C643.066 775.282 650.333 777.391 656.764 781.807C663.414 786.373 669.922 794.027 670.57 805.372C671.092 814.504 671.095 824.837 670.941 833H697.588C707.664 833 714.466 839.468 718.296 844.747C722.244 850.189 724.675 856.48 725.904 860.953C726.516 863.18 726.622 865.491 726.728 867.792L726.728 867.799C726.754 868.359 726.78 868.919 726.813 869.477L726.813 869.482C727.091 874.164 727.528 881.516 727.5 887.891C727.481 892.208 727.268 897.027 726.443 901.021C726.049 902.928 725.338 905.582 723.826 908.021C722.235 910.588 718.626 914.5 712.588 914.5H315.588C309.771 914.5 306.005 910.981 304.121 908.143C302.4 905.551 301.574 902.679 301.112 900.558C300.596 895.446 300.604 882.4 300.611 871.516V871.515V871.509V871.503C300.613 869.493 300.614 867.556 300.612 865.758V865.737C300.612 865.73 300.612 865.729 300.612 865.732C300.612 854.5 306.372 847.115 312.133 842.61C318.379 837.725 327.135 833 335.344 833H357.088V810C357.088 796.946 362.876 787.709 370.507 782.011C377.639 776.686 385.907 774.748 391.63 774.51L391.859 774.5H479.088V336.136C479.032 336.121 478.971 336.106 478.906 336.091C478.712 336.048 478.519 336.02 478.346 336.004C478.168 335.988 478.056 335.99 478.027 335.991L477.808 336H291.805L401.159 578.363C402.335 580.969 402.933 583.64 403.028 586.26C416.973 588.449 425.18 604.061 418.111 617.043L399.167 651.831C399.157 651.853 399.136 651.898 399.102 651.973C399.065 652.059 399.028 652.143 398.972 652.272L398.969 652.278L398.937 652.353C398.869 652.509 398.776 652.724 398.673 652.953C394.396 662.448 381.988 671.5 361 671.5H176.156C168.661 671.681 152.777 668.24 145.089 652.272C142.722 647.355 137.76 638.733 132.411 629.436C129.951 625.161 127.409 620.744 124.999 616.478C117.576 603.337 126.217 588.229 139.896 586.224C139.994 583.646 140.58 581.018 141.724 578.452L249.778 336H222.154C216.741 336.495 209.029 335.595 202.236 330.93C194.466 325.595 189.588 316.5 189.588 304C189.588 291.5 194.446 282.408 201.952 276.896C208.697 271.944 216.458 270.701 221.928 271H479.088V225.304C463.29 213.961 453 195.432 453 174.5C453 139.982 480.982 112 515.5 112C550.018 112 578 139.982 578 174.5ZM515.5 237C518.807 237 522.055 236.743 525.223 236.248C525.192 237.835 525.156 239.43 525.119 241.031L525.119 241.068C524.89 251.09 524.657 261.339 525.771 271C526.105 273.897 526.699 276.748 527.987 279.95C529.227 283.037 531.658 287.312 536.478 289.788C541.486 292.359 547.056 293.171 550.771 293H806.771C808.049 293.059 810.26 293.294 811.955 294.71C813.223 295.768 815.047 297.95 814.921 303.398C814.851 306.375 814.278 310.173 813.772 311.205C813.283 312.202 812.717 312.773 812.184 313.154C810.909 314.065 809.117 314.327 808.1 314.217L807.51 314.154H550.418C541.277 314.154 534.711 318.55 530.873 324.29C527.43 329.44 526.418 335.217 526.418 339.154V774.5H501.088V336C501.088 327.372 496.845 321.154 491.213 317.649C486.376 314.638 481.051 313.897 477.406 314H220.935L220.287 314.077C218.721 314.264 216.334 313.923 214.69 312.795C213.992 312.315 213.321 311.634 212.771 310.507C212.203 309.342 211.588 307.328 211.588 304C211.588 297.7 213.73 295.542 214.973 294.629C216.794 293.292 219.292 292.864 220.804 292.972L221.195 293H480.088C491.686 293 501.088 283.598 501.088 272V235.33C505.715 236.422 510.54 237 515.5 237ZM555 175C555 197.091 537.091 215 515 215C492.909 215 475 197.091 475 175C475 152.909 492.909 135 515 135C537.091 135 555 152.909 555 175ZM415.588 833H379.088V810C379.088 804.254 381.3 801.408 383.669 799.639C386.459 797.556 390.067 796.636 392.357 796.5H635.739C638.097 796.922 641.538 798.039 644.311 799.943C647.128 801.877 648.454 803.973 648.606 806.628C649.098 815.242 649.091 825.203 648.937 833H615.088V855H697.588C703.5 855 705.365 863.05 705.363 866.589C705.652 872.536 705.543 879.269 705.447 885.171C705.403 887.832 705.363 890.325 705.363 892.5H322.149V891.802C322.148 882.085 322.148 873.401 322.563 864.268C322.563 858 330.5 855 335.597 855H415.588V833ZM758.325 350.237L645.394 585.654H867.21L758.325 350.237ZM162.445 586L270.786 342.906L380.469 586H162.445ZM150.854 617.369C149.015 614.172 147.188 610.996 145.483 608H397.985L379.82 641.358C379.45 642.036 379.17 642.652 378.987 643.064C378.872 643.323 378.816 643.453 378.781 643.534C378.723 643.669 378.724 643.672 378.614 643.918C378.629 643.883 378.624 643.89 378.595 643.932L378.594 643.932C378.249 644.416 374.619 649.5 361 649.5H175.81L175.621 649.507C174.914 649.531 172.737 649.321 170.403 648.199C168.266 647.171 166.255 645.519 164.911 642.728C162.178 637.051 156.458 627.11 150.854 617.369ZM649.907 640.88L631.677 608H884.558C882.754 612.329 880.742 616.983 878.876 621.107C876.342 626.708 874.477 630.429 873.777 631.505C865.915 643.601 857.83 648.292 854.85 649.5H666.5C664.07 649.5 660.952 648.531 657.504 646.569C654.331 644.764 651.602 642.527 649.907 640.88Z" fill="white"/>
</g>
<defs>
<filter id="filter0_d_1_2" x="0" y="0" width="1032" height="1032" filterUnits="userSpaceOnUse" color-interpolation-filters="sRGB">
<feFlood flood-opacity="0" result="BackgroundImageFix"/>
<feColorMatrix in="SourceAlpha" type="matrix" values="0 0 0 0 0 0 0 0 0 0 0 0 0 0 0 0 0 0 127 0" result="hardAlpha"/>
<feOffset dy="4"/>
<feGaussianBlur stdDeviation="2"/>
<feComposite in2="hardAlpha" operator="out"/>
<feColorMatrix type="matrix" values="0 0 0 0 0 0 0 0 0 0 0 0 0 0 0 0 0 0 0.25 0"/>
<feBlend mode="normal" in2="BackgroundImageFix" result="effect1_dropShadow_1_2"/>
<feBlend mode="normal" in="SourceGraphic" in2="effect1_dropShadow_1_2" result="shape"/>
</filter>
</defs>
</svg>
